HIERARCHY
ROOT Hips
{
	OFFSET 0.00000 0.00000 0.00000
	CHANNELS 6 Xposition Yposition Zposition Zrotation Yrotation Xrotation 
	JOINT LHipJoint
	{
		OFFSET 0 0 0
		CHANNELS 3 Zrotation Yrotation Xrotation
		JOINT LeftUpLeg
		{
			OFFSET 1.53794 -1.55850 0.93568
			CHANNELS 3 Zrotation Yrotation Xrotation
			JOINT LeftLeg
			{
				OFFSET 2.28545 -6.27922 0.00000
				CHANNELS 3 Zrotation Yrotation Xrotation
				JOINT LeftFoot
				{
					OFFSET 2.37329 -6.52057 0.00000
					CHANNELS 3 Zrotation Yrotation Xrotation
					JOINT LeftToeBase
					{
						OFFSET 0.14846 -0.40788 2.09160
						CHANNELS 3 Zrotation Yrotation Xrotation
						End Site
						{
							OFFSET 0.00000 -0.00000 1.07536
						}
					}
				}
			}
		}
	}
	JOINT RHipJoint
	{
		OFFSET 0 0 0
		CHANNELS 3 Zrotation Yrotation Xrotation
		JOINT RightUpLeg
		{
			OFFSET -1.78290 -1.55850 0.93568
			CHANNELS 3 Zrotation Yrotation Xrotation
			JOINT RightLeg
			{
				OFFSET -2.24144 -6.15831 0.00000
				CHANNELS 3 Zrotation Yrotation Xrotation
				JOINT RightFoot
				{
					OFFSET -2.35091 -6.45907 0.00000
					CHANNELS 3 Zrotation Yrotation Xrotation
					JOINT RightToeBase
					{
						OFFSET -0.14428 -0.39641 2.07944
						CHANNELS 3 Zrotation Yrotation Xrotation
						End Site
						{
							OFFSET -0.00000 -0.00000 1.06864
						}
					}
				}
			}
		}
	}
	JOINT LowerBack
	{
		OFFSET 0 0 0
		CHANNELS 3 Zrotation Yrotation Xrotation
		JOINT Spine
		{
			OFFSET -0.08841 2.11430 -0.15818
			CHANNELS 3 Zrotation Yrotation Xrotation
			JOINT Spine1
			{
				OFFSET -0.00033 2.12605 -0.08097
				CHANNELS 3 Zrotation Yrotation Xrotation
				JOINT Neck
				{
					OFFSET 0 0 0
					CHANNELS 3 Zrotation Yrotation Xrotation
					JOINT Neck1
					{
						OFFSET 0.04431 1.59447 0.43193
						CHANNELS 3 Zrotation Yrotation Xrotation
						JOINT Head
						{
							OFFSET 0.00455 1.62017 -0.58852
							CHANNELS 3 Zrotation Yrotation Xrotation
							End Site
							{
								OFFSET -0.00920 1.72955 -0.25850
							}
						}
					}
				}
				JOINT LeftShoulder
				{
					OFFSET 0 0 0
					CHANNELS 3 Zrotation Yrotation Xrotation
					JOINT LeftArm
					{
						OFFSET 2.86490 1.49927 -0.33774
						CHANNELS 3 Zrotation Yrotation Xrotation
						JOINT LeftForeArm
						{
							OFFSET 4.87408 -0.00000 0.00000
							CHANNELS 3 Zrotation Yrotation Xrotation
							JOINT LeftHand
							{
								OFFSET 2.76729 -0.00000 0.00000
								CHANNELS 3 Zrotation Yrotation Xrotation
								JOINT LeftFingerBase
								{
									OFFSET 0 0 0
									CHANNELS 3 Zrotation Yrotation Xrotation
									JOINT LeftHandIndex1
									{
										OFFSET 0.98922 -0.00000 0.00000
										CHANNELS 3 Zrotation Yrotation Xrotation
										End Site
										{
											OFFSET 0.79753 -0.00000 0.00000
										}
									}
								}
								JOINT LThumb
								{
									OFFSET 0 0 0
									CHANNELS 3 Zrotation Yrotation Xrotation
									End Site
									{
										OFFSET 0.80972 -0.00000 0.80972
									}
								}
							}
						}
					}
				}
				JOINT RightShoulder
				{
					OFFSET 0 0 0
					CHANNELS 3 Zrotation Yrotation Xrotation
					JOINT RightArm
					{
						OFFSET -2.94414 1.45463 -0.25291
						CHANNELS 3 Zrotation Yrotation Xrotation
						JOINT RightForeArm
						{
							OFFSET -4.71404 -0.00000 0.00000
							CHANNELS 3 Zrotation Yrotation Xrotation
							JOINT RightHand
							{
								OFFSET -2.83468 -0.00000 0.00000
								CHANNELS 3 Zrotation Yrotation Xrotation
								JOINT RightFingerBase
								{
									OFFSET 0 0 0
									CHANNELS 3 Zrotation Yrotation Xrotation
									JOINT RightHandIndex1
									{
										OFFSET -0.86820 -0.00000 0.00000
										CHANNELS 3 Zrotation Yrotation Xrotation
										End Site
										{
											OFFSET -0.69996 -0.00000 0.00000
										}
									}
								}
								JOINT RThumb
								{
									OFFSET 0 0 0
									CHANNELS 3 Zrotation Yrotation Xrotation
									End Site
									{
										OFFSET -0.71065 -0.00000 0.71065
									}
								}
							}
						}
					}
				}
			}
		}
	}
}
MOTION
Frames: 11
Frame Time: .0083333
1.1865 15.7777 33.745 0 0 0 0 0 0 -21 0 0 0 0 0 0 0 0 0 0 0 0 0 0 21 0 0 0 0 0 0 0 0 0 0 0 0 0 0 0 0 0 0 0 0 0 0 -16 0 0 21 0 0 11 0 0 0 -8 0 0 0 0 0 0 0 0 0 0 0 0 0 0 0 0 0 0 0 0 8 0 0 0 0 0 0 0 0 0 0 0 0 0 0 0 0 0
1.1865 15.7777 33.7450 176.4540 1.2956 -176.8660 0.0000 0.0000 0.0000 -27.5633 0.5106 -4.0076 9.1458 16.9007 56.5931 1.2342 17.7545 21.9200 0.0024 0.3155 0.8669 0.0000 0.0000 0.0000 16.3605 11.5260 -29.2611 -3.1415 -10.9206 32.0126 0.3560 -13.5082 4.1251 -1.2475 7.0816 -19.9572 -4.9144 -4.1671 -1.4922 0.2887 -5.3686 2.4343 2.7591 -2.7932 3.8351 5.3182 2.1880 -28.0448 -6.0651 6.9589 40.6465 -1.9323 3.5200 21.8715 -0.0000 0.0000 0.0000 -71.9201 12.0212 58.7874 113.0770 -57.8889 -79.8436 -0.0000 -0.0000 21.3599 14.2521 0.5707 0.1450 -7.1250 0.0000 -0.0000 -9.7307 30.4881 3.4933 -0.0000 0.0000 0.0000 64.8689 -45.2309 36.2467 -63.7670 57.2329 -37.4926 0.0000 0.0000 3.4782 -13.9506 -1.6945 0.4209 7.1250 -0.0000 -0.0000 10.0927 -31.6233 3.3478
1.2176 15.6878 33.5122 176.7520 1.5799 -177.6160 0.0000 0.0000 0.0000 -26.9277 0.9994 -4.9043 10.1744 17.5068 60.0698 1.0398 18.4956 20.9225 0.0003 -0.1089 -0.2991 0.0000 0.0000 0.0000 17.1271 11.6210 -28.4950 -3.5267 -11.5025 33.9939 0.4593 -13.2005 1.2357 -1.1377 6.7738 -19.0469 -4.8753 -3.8607 -0.6921 0.3521 -4.9990 2.4482 2.8843 -2.5986 3.3674 5.5541 2.2265 -28.2878 -6.2774 6.9379 40.5751 -2.0918 3.5100 21.9222 0.0000 0.0000 0.0000 -72.3141 12.7441 58.4107 111.6957 -58.1445 -78.6720 -0.0000 -0.0000 21.9265 14.8882 1.2378 0.3290 -7.1250 0.0000 -0.0000 -9.3003 31.1791 3.1790 0.0000 0.0000 0.0000 65.0208 -44.7427 36.7738 -63.5553 57.1852 -37.3146 0.0000 0.0000 3.7092 -14.2180 -1.6985 0.4303 7.1250 -0.0000 -0.0000 9.8814 -31.6338 3.2733
1.2476 15.5996 33.2844 177.0210 1.9244 -178.2870 0.0000 0.0000 0.0000 -26.2711 1.4835 -5.9845 11.2381 18.0496 63.5523 0.8336 18.8993 19.7048 0.0103 -0.6551 -1.8002 0.0000 0.0000 0.0000 17.9889 11.4063 -27.7241 -3.8420 -11.9471 35.5451 0.5325 -13.3362 -0.9254 -1.1144 6.7064 -18.8483 -4.8061 -3.5163 0.0383 0.3651 -4.5655 2.5663 2.9258 -2.3721 3.0350 4.5254 1.8207 -28.2109 -5.4806 6.5401 40.7931 -1.5892 3.3261 21.8926 0.0000 0.0000 0.0000 -72.7564 13.3527 57.7313 109.9615 -58.4395 -77.1966 -0.0000 -0.0000 22.6646 15.3291 1.4449 0.3960 -7.1250 0.0000 -0.0000 -8.9732 31.4001 3.0165 0.0000 0.0000 0.0000 65.5618 -43.7375 37.1190 -62.8716 57.0278 -36.7405 0.0000 0.0000 4.4103 -14.6500 -2.2673 0.5925 7.1250 -0.0000 -0.0000 9.6039 -32.2236 3.0408
1.2788 15.5273 33.0768 177.7740 2.2194 -178.9780 0.0000 0.0000 0.0000 -25.0004 1.7698 -7.3531 12.3091 18.5183 66.9652 0.6148 19.0608 18.2467 0.0086 -0.6000 -1.6486 0.0000 0.0000 0.0000 19.2220 11.4920 -26.7123 -4.1558 -12.3649 37.0354 0.5906 -13.5822 -3.1306 -1.0214 6.4293 -18.0351 -4.2622 -3.1347 0.5539 0.4602 -4.0606 2.9514 2.7593 -2.1064 3.0654 4.7852 1.7686 -28.3576 -5.6451 6.2962 40.5998 -1.7889 3.2370 21.7970 0.0000 -0.0000 0.0000 -73.1922 13.4359 57.0113 107.5158 -58.8084 -75.1085 -0.0000 -0.0000 22.9632 15.6427 1.6647 0.4661 -7.1250 0.0000 -0.0000 -8.7473 31.6322 2.8896 0.0000 -0.0000 0.0000 66.7794 -41.9899 36.8531 -61.7174 56.7505 -35.7737 0.0000 0.0000 4.6396 -14.9183 -2.3918 0.6370 7.1250 -0.0000 -0.0000 9.4042 -32.3581 2.9451
1.3073 15.4384 32.8663 178.2980 2.4611 -179.6500 0.0000 0.0000 0.0000 -23.9898 2.0207 -8.5664 13.3815 18.9156 70.3063 0.4054 19.3712 16.8739 0.0134 -0.7476 -2.0545 0.0000 0.0000 0.0000 20.2154 11.4159 -25.7718 -4.4620 -12.7510 38.4436 0.6162 -13.7466 -5.1740 -0.9759 6.2889 -17.6249 -3.9322 -2.8229 1.1943 0.5418 -3.6505 3.2025 2.6994 -1.8868 2.9148 4.6745 1.6379 -28.4250 -5.5719 6.0697 40.5202 -1.7904 3.1387 21.7255 -0.0000 0.0000 0.0000 -73.6825 13.7772 56.2092 105.2106 -59.1075 -73.1333 -0.0000 -0.0000 23.2864 16.0032 1.9660 0.5637 -7.1250 0.0000 -0.0000 -8.4917 31.9503 2.7378 -0.0000 0.0000 0.0000 67.6162 -40.4131 36.8932 -60.6528 56.4814 -34.8848 0.0000 0.0000 5.0770 -15.2074 -2.6682 0.7250 7.1250 -0.0000 -0.0000 9.2051 -32.6488 2.8160
1.3336 15.3510 32.6629 178.7990 2.6269 -180.2730 0.0000 0.0000 0.0000 -22.9968 2.1001 -9.8695 14.4406 19.2423 73.5456 0.1899 19.6585 15.3848 0.0168 -0.8368 -2.3000 0.0000 0.0000 0.0000 21.1369 11.2678 -24.8687 -4.7563 -13.1040 39.7591 0.6240 -13.9380 -7.0259 -0.9500 6.2072 -17.3867 -3.6044 -2.5491 1.8182 0.6194 -3.2825 3.4582 2.6281 -1.6868 2.7849 4.6125 1.5334 -28.5132 -5.5257 5.8660 40.4302 -1.8090 3.0508 21.6602 0.0000 0.0000 0.0000 -74.2023 14.0798 55.2766 102.6114 -59.3904 -70.8994 -0.0000 -0.0000 23.5419 16.2663 2.2631 0.6601 -7.1250 0.0000 -0.0000 -8.3124 32.2629 2.6157 0.0000 0.0000 0.0000 68.5230 -38.6093 36.8784 -59.4285 56.1557 -33.8660 0.0000 0.0000 5.6311 -15.4699 -2.9317 0.8110 7.1250 -0.0000 -0.0000 9.0250 -32.9266 2.6984
1.3572 15.2667 32.4666 179.2220 2.6965 -180.8140 0.0000 0.0000 0.0000 -22.1047 1.9615 -11.2849 15.4608 19.4987 76.6209 -0.0255 19.9688 13.8423 0.0191 -0.8927 -2.4536 0.0000 0.0000 0.0000 21.9114 11.0681 -24.1109 -5.0645 -13.4561 41.1008 0.6176 -14.1432 -8.7579 -0.9403 6.1762 -17.2966 -3.3267 -2.3175 2.4186 0.6747 -2.9665 3.6742 2.5555 -1.5124 2.6356 4.6540 1.4637 -28.5759 -5.5382 5.6915 40.3274 -1.8691 2.9828 21.5903 0.0000 -0.0000 0.0000 -74.7174 14.3962 54.2686 99.7652 -59.6366 -68.4466 -0.0000 -0.0000 23.7257 16.4652 2.6160 0.7729 -7.1250 0.0000 -0.0000 -8.1901 32.6323 2.5029 0.0000 -0.0000 0.0000 69.4821 -36.6976 36.8172 -58.1511 55.7968 -32.8073 0.0000 0.0000 6.3348 -15.6808 -3.1024 0.8704 7.1250 -0.0000 -0.0000 8.8753 -33.1084 2.6133
1.3778 15.1878 32.2765 179.5130 2.6785 -181.2410 0.0000 0.0000 0.0000 -21.3987 1.5972 -12.8345 16.4196 19.6898 79.4795 -0.2388 20.3389 12.2859 0.0213 -0.9415 -2.5879 0.0000 0.0000 0.0000 22.4828 10.8081 -23.5300 -5.3752 -13.7942 42.4193 0.6028 -14.3731 -10.3256 -0.9483 6.2018 -17.3711 -3.1447 -2.1255 2.9126 0.6880 -2.6976 3.8760 2.4843 -1.3641 2.5402 4.7399 1.4285 -28.7105 -5.5504 5.5430 40.2420 -1.9305 2.9289 21.5585 -0.0000 -0.0000 0.0000 -75.2125 14.6676 53.1970 96.7081 -59.8293 -65.8061 -0.0000 -0.0000 23.8038 16.6295 3.0424 0.9082 -7.1250 0.0000 -0.0000 -8.1036 33.0773 2.3881 -0.0000 -0.0000 0.0000 70.5021 -34.6789 36.6942 -56.8850 55.4211 -31.7625 0.0000 0.0000 7.1858 -15.8682 -3.1219 0.8869 7.1250 -0.0000 -0.0000 8.7265 -33.1345 2.5630
1.3959 15.1163 32.0923 179.6620 2.5874 -181.5420 0.0000 0.0000 0.0000 -20.8885 1.0256 -14.5334 17.2975 19.8240 82.0761 -0.4442 20.7641 10.7735 0.0231 -0.9816 -2.6982 0.0000 0.0000 0.0000 22.8516 10.5041 -23.1432 -5.6893 -14.1203 43.7215 0.5833 -14.6300 -11.7593 -0.9635 6.2500 -17.5116 -3.0684 -1.9592 3.2889 0.6526 -2.4611 4.0560 2.4151 -1.2353 2.4948 4.8108 1.3899 -28.8518 -5.5251 5.3859 40.1798 -1.9719 2.8758 21.5409 -0.0000 0.0000 0.0000 -75.6682 14.8904 52.1068 93.5027 -59.9536 -63.0330 -0.0000 -0.0000 23.8302 16.7543 3.5476 1.0672 -7.1250 0.0000 -0.0000 -8.0587 33.6035 2.2710 -0.0000 0.0000 0.0000 71.5744 -32.6363 36.5347 -55.7532 55.0678 -30.8326 0.0000 0.0000 8.0876 -16.0340 -2.9906 0.8590 7.1250 -0.0000 -0.0000 8.5778 -33.0049 2.5456
1.4116 15.0535 31.9135 179.6880 2.4417 -181.7360 0.0000 0.0000 0.0000 -20.5522 0.2823 -16.3478 18.0765 19.9111 84.3681 -0.6431 21.2597 9.3298 0.0237 -0.9936 -2.7313 0.0000 0.0000 0.0000 23.0456 10.1601 -22.9118 -6.0021 -14.4304 44.9901 0.5578 -14.8745 -13.0664 -0.9847 6.3162 -17.7048 -3.0794 -1.8092 3.5641 0.5700 -2.2485 4.1924 2.3419 -1.1215 2.4653 4.8942 1.3484 -28.9320 -5.4816 5.2244 40.1340 -2.0066 2.8303 21.5156 -0.0000 -0.0000 0.0000 -76.0685 15.1320 51.0398 90.2458 -59.9998 -60.2129 -0.0000 -0.0000 23.7683 16.8731 4.0778 1.2356 -7.1250 0.0000 -0.0000 -8.0227 34.1560 2.1523 -0.0000 -0.0000 0.0000 72.6810 -30.6639 36.3777 -54.7919 54.7544 -30.0460 0.0000 0.0000 8.9538 -16.1482 -2.7034 0.7824 7.1250 -0.0000 -0.0000 8.4542 -32.7130 2.5685
